<?xml version="1.0" standalone="no"?>
<!DOCTYPE svg PUBLIC "-//W3C//DTD SVG 20010904//EN"
 "http://www.w3.org/TR/2001/REC-SVG-20010904/DTD/svg10.dtd">
<svg version="1.0" xmlns="http://www.w3.org/2000/svg" viewBox="0 0 1080.000000 1254.000000"
 preserveAspectRatio="xMidYMid meet">
<metadata>
Created by potrace 1.10, written by Peter Selinger 2001-2011
</metadata>
<g transform="translate(0.000000,1254.000000) scale(0.100000,-0.100000)"
fill="#000000" stroke="none">
<path d="M5791 8976 c-14 -16 -13 -296 0 -318 7 -10 191 -13 926 -15 504 -2
921 -7 925 -11 5 -5 11 -420 14 -923 4 -503 10 -918 15 -923 9 -10 303 -11
319 -1 16 10 14 2177 -2 2193 -9 9 -267 12 -1099 12 -926 0 -1088 -2 -1098
-14z"/>
<path d="M4587 7603 c-4 -3 -7 -134 -7 -289 l0 -283 41 -63 c23 -35 50 -75 60
-90 10 -15 19 -29 19 -32 0 -2 19 -33 42 -68 24 -35 47 -71 53 -80 9 -15 66
-106 115 -183 38 -61 106 -168 115 -183 6 -9 25 -39 43 -66 17 -27 29 -53 26
-57 -3 -5 -120 -9 -260 -9 l-254 0 0 -979 c0 -909 1 -979 17 -985 26 -10 506
-5 525 5 17 9 18 51 18 689 0 373 3 685 6 694 5 14 41 16 293 16 280 0 446 12
551 39 137 36 211 60 263 87 16 8 32 14 37 14 5 0 47 23 94 51 99 59 188 137
253 222 48 62 132 220 133 248 0 9 6 32 14 50 27 67 40 248 26 372 -16 150
-36 223 -92 342 -133 280 -444 468 -879 530 -85 12 -220 15 -676 15 -313 0
-573 -3 -576 -7z m1273 -583 c139 -30 251 -89 313 -166 164 -202 87 -477 -163
-584 -66 -28 -209 -67 -230 -62 -8 2 -28 24 -44 50 -17 26 -46 72 -66 102 -20
31 -39 62 -43 70 -4 8 -15 27 -25 42 -9 15 -37 59 -62 98 -25 39 -52 82 -60
95 -8 13 -41 65 -73 117 -32 51 -64 102 -70 112 -7 11 -27 42 -44 70 -18 28
-33 56 -33 63 0 10 55 13 253 13 213 0 267 -3 347 -20z"/>
<path d="M3193 5392 c-9 -6 -10 -52 -3 -197 5 -105 16 -350 25 -545 64 -1470
75 -1683 89 -1695 7 -8 110 -8 321 -3 171 4 607 12 970 19 363 6 664 13 668
16 4 3 7 83 6 179 -1 167 -2 176 -23 188 -16 9 -89 10 -331 4 -806 -20 -1310
-25 -1322 -14 -12 11 -16 74 -48 771 -9 187 -22 471 -30 630 -8 160 -17 367
-21 460 -3 94 -11 176 -16 183 -12 14 -264 18 -285 4z"/>
</g>
</svg>
