<?xml version="1.0" standalone="no"?>
<!DOCTYPE svg PUBLIC "-//W3C//DTD SVG 20010904//EN"
 "http://www.w3.org/TR/2001/REC-SVG-20010904/DTD/svg10.dtd">
<svg version="1.0" xmlns="http://www.w3.org/2000/svg"
 width="3000.000000pt" height="2127.000000pt" viewBox="0 0 3000.000000 2127.000000"
 preserveAspectRatio="xMidYMid meet">

<g transform="translate(0.000000,2127.000000) scale(0.100000,-0.100000)"
fill="#000000" stroke="none">
<path d="M14630 19349 c-1841 -77 -3613 -740 -5063 -1896 -339 -270 -755 -660
-1031 -966 -1275 -1416 -2044 -3163 -2220 -5047 -30 -312 -39 -579 -33 -955 6
-360 11 -459 42 -770 192 -1900 1037 -3723 2372 -5118 1389 -1450 3204 -2369
5183 -2627 427 -55 784 -74 1265 -67 591 9 1028 55 1589 168 2026 407 3827
1512 5122 3144 1448 1826 2101 4163 1814 6495 -165 1334 -647 2633 -1392 3748
-340 509 -650 885 -1102 1338 -292 291 -505 482 -777 696 -1641 1290 -3672
1944 -5769 1857z m255 -7676 c2872 -3699 3128 -4029 3836 -4948 l85 -110 -440
-355 c-242 -195 -445 -356 -452 -358 -11 -3 -192 225 -951 1203 -554 714
-2745 3545 -3558 4597 -385 499 -703 907 -707 907 -5 1 -8 -1230 -8 -2734 l0
-2735 -590 0 -590 0 0 3490 0 3490 738 0 738 0 1899 -2447z m3715 1800 c0
-357 -3 -935 -7 -1285 l-6 -638 -286 0 c-157 0 -418 3 -578 7 l-293 6 0 1279
0 1278 585 0 585 0 0 -647z"/>
</g>
</svg>
